<svg t="1631760515183" class="icon" viewBox="0 0 1024 1024" version="1.1" xmlns="http://www.w3.org/2000/svg" p-id="12066" width="200" height="200"><path d="M1024 352.002C1024 546.406 866.404 704 672 704c-22.44 0-44.38-2.124-65.654-6.138l-48.024 54.028A47.998 47.998 0 0 1 522.446 768H448v80c0 26.51-21.49 48-48 48h-80v80c0 26.51-21.49 48-48 48H48c-26.51 0-48-21.49-48-48V819.882a48.01 48.01 0 0 1 14.058-33.942l323.604-323.604C326.216 427.628 320 390.542 320 352 320 157.596 477.594 0.002 671.998 0 866.976-0.002 1024 157.022 1024 352.002zM672 256c0 53.02 42.98 96 96 96s96-42.98 96-96-42.98-96-96-96-96 42.98-96 96z" p-id="12067"></path></svg>