<svg t="1633939191901" class="icon" viewBox="0 0 1264 1024" version="1.1" xmlns="http://www.w3.org/2000/svg" p-id="1189" width="200" height="200"><path d="M1250.057513 473.992162L794.480863 15.313483a50.054101 50.054101 0 0 0-72.069473 0l-72.00924 73.394612a52.22251 52.22251 0 0 0 0 73.213911l246.716726 247.680464H52.674262C23.551328 409.60247 0 432.491228 0 460.801009v102.397079c0 28.309781 23.551328 51.198539 52.704379 51.198539h841.613636l-246.837193 247.740697a52.342977 52.342977 0 0 0 0 73.304261l72.039356 73.424729c19.78673 20.178248 52.102043 20.178248 72.069474 0l458.467861-461.47954a52.824846 52.824846 0 0 0 0-73.394612" p-id="1190"></path></svg>