<svg t="1618451875441" class="icon" viewBox="0 0 1024 1024" version="1.1" xmlns="http://www.w3.org/2000/svg" p-id="3730" width="200" height="200"><path d="M960.186 639.965H768.149V448.209h-64.012v191.756H512.099v63.919h192.037v191.773l64.012-0.017V703.883h192.037v-63.918zM832.162 127.99H64.012V63.946l768.15-0.078z m-64.013 0h64.012v255.964h-64.012zM128.025 831.721l-64.013 0.164V127.99h63.978z" p-id="3731"></path><path d="M64.212 831.721h319.862v63.919H64.212z m127.868-511.83h384.075v-63.919H192.08v63.919z m0 127.768l320.062 0.069v-63.919H192.08v63.85z m0 128.317h192.037v-63.891l-192.037-0.028v63.919z m0 0" p-id="3732"></path></svg>