<svg t="1631281298820" class="icon" viewBox="0 0 1024 1024" version="1.1" xmlns="http://www.w3.org/2000/svg" p-id="5285" width="200" height="200"><path d="M341.290667 938.666667h341.333333c47.061333 0 85.333333-38.272 85.333333-85.333334V170.666667c0-47.061333-38.272-85.333333-85.333333-85.333334h-341.333333c-47.061333 0-85.333333 38.272-85.333334 85.333334v682.666666c0 47.061333 38.272 85.333333 85.333334 85.333334z m-213.333334-640h85.333334V213.333333h-85.333334v21.333334h-42.666666v42.666666h42.666666z m768-85.333334h-85.333333v85.333334h85.333333v-21.333334h42.666667v-42.666666h-42.666667z m-768 256h85.333334V384h-85.333334v21.333333h-42.666666v42.666667h42.666666z m768-85.333333h-85.333333v85.333333h85.333333v-21.333333h42.666667v-42.666667h-42.666667z m-768 256h85.333334v-85.333333h-85.333334v21.333333h-42.666666v42.666667h42.666666z m768-85.333333h-85.333333v85.333333h85.333333v-21.333333h42.666667v-42.666667h-42.666667z m-768 256h85.333334v-85.333334h-85.333334v21.333334h-42.666666v42.666666h42.666666z m768-85.333334h-85.333333v85.333334h85.333333v-21.333334h42.666667v-42.666666h-42.666667z" p-id="5286"></path></svg>