<svg t="1618555173304" class="icon" viewBox="0 0 1024 1024" version="1.1" xmlns="http://www.w3.org/2000/svg" p-id="1844" width="200" height="200"><path d="M823.14 200.89c-0.01-0.01-0.01-0.01-0.01-0.02-0.01-0.01-0.01-0.01-0.02-0.01C737.19 114.95 624.6 72 512 72c-112.61 0-225.21 42.96-311.13 128.87-171.82 171.83-171.83 450.41-0.02 622.24 0.01 0.01 0.01 0.02 0.01 0.02l0.02 0.01C286.81 909.05 399.4 952 512 952c112.61 0 225.21-42.96 311.13-128.87 171.82-171.83 171.83-450.41 0.01-622.24zM226.8 226.8c76.18-76.18 177.47-118.13 285.2-118.13 101.57 0 197.14 37.7 271.61 105.8L214.47 783.61c-68.11-74.47-105.8-170.03-105.8-271.61 0-107.73 41.95-209.02 118.13-285.2z m570.4 570.4C721.02 873.38 619.73 915.33 512 915.33c-101.57 0-197.13-37.7-271.61-105.8L809.5 240.42c144.38 158.07 140.58 403.89-12.3 556.78z" p-id="1845"></path></svg>