<svg t="1620293952991" class="icon" viewBox="0 0 1024 1024" version="1.1" xmlns="http://www.w3.org/2000/svg" p-id="3483" width="200" height="200"><path d="M976.134743 641.225803l-99.033288 0 0-57.703649c0-56.090224-39.045869-101.615766-87.15289-101.615766L554.503493 481.906388l0-99.131192 117.57618 0c26.421198 0 47.865257-30.318392 47.865257-67.672913L719.944929 67.672913C719.944929 30.318392 698.501869 0 672.079672 0L384.883138 0c-26.421198 0-47.865257 30.318392-47.865257 67.672913l0 247.428371c0 37.35552 21.444059 67.672913 47.865257 67.672913l114.57511 0 0 99.131192-232.443005 0c-48.10802 0-87.15289 45.52654-87.15289 101.615766l0 56.704624L47.865257 640.22578C21.444059 640.226779 0 670.544172 0 707.899692l0 247.428371C0 992.682583 21.444059 1023.000976 47.865257 1023.000976l287.196535 0c26.421198 0 47.865257-30.318392 47.865257-67.672913l0-247.428371c0-37.35552-21.444059-67.672913-47.865257-67.672913L230.33806 640.226779l0-54.643637c0-27.908745 19.090357-50.559625 42.60839-50.559625l511.31367 0c23.559992 0 42.606392 22.651879 42.606392 50.559625l0 55.642661L688.938209 641.225803c-26.421198 0-47.865257 30.318392-47.865257 67.672913l0 247.428371c0 37.35552 21.444059 67.672913 47.865257 67.672913l287.196535 0c26.421198 0 47.865257-30.318392 47.865257-67.672913l0-247.428371C1024 671.543196 1002.555941 641.225803 976.134743 641.225803zM388.042053 282.257358 388.042053 101.515863c0-13.642677 10.069167-49.692472 41.416554-49.692472l197.292332 0c37.600281 0 39.418505 36.049795 39.418505 49.692472l0 180.741495c0 33.434349-17.802615 47.694423-39.418505 47.694423L429.458607 329.951781C401.108293 329.951781 388.042053 321.186341 388.042053 282.257358zM970.224515 923.483161c0 33.434349-17.802615 47.694423-39.418505 47.694423L733.513678 971.177584c-28.351313 0-41.416554-8.76544-41.416554-47.694423L692.097124 742.741666c0-13.642677 10.068168-49.692472 41.416554-49.692472l197.291333 0c37.600281 0 39.418505 36.049795 39.418505 49.692472L970.223516 923.483161z" p-id="3484"></path></svg>
