<svg t="1622458322213" class="icon" viewBox="0 0 1024 1024" version="1.1" xmlns="http://www.w3.org/2000/svg" p-id="14390" width="200" height="200"><path d="M582.16 588.141C605.167 560.431 619 524.831 619 486c0-88.366-71.634-160-160-160s-160 71.634-160 160 71.634 160 160 160c35.248 0 67.833-11.398 94.272-30.709l114.836 114.836c6.249 6.249 16.38 6.249 22.628 0l5.391-5.391c6.249-6.249 6.249-16.38 0-22.628L582.16 588.141zM532.916 72.548c5.976 5.902 11.462 10.74 16.457 14.514 69.582 52.57 195.867 87.22 311.058 94.767 4.226 0.277 9.668 0.553 16.325 0.829 8.571 0.354 15.345 7.733 15.345 16.715V541.15c0 81.28-33.485 166.473-87.403 224.947-27.983 39.074-63.757 75.737-101.28 111.859C604.234 985.52 435.93 985.06 328.032 889.82c-42.407-37.432-81.216-81.168-116.426-131.207C160.426 700.654 132 624.618 132 545.68V199.966c0-8.978 6.768-16.355 15.336-16.715 7.795-0.327 14.117-0.658 18.965-0.993 115.787-7.988 242.23-43.212 310.772-96.385 4.409-3.42 9.242-7.784 14.502-13.091 11.512-11.618 29.709-11.721 41.34-0.234zM459 598c-61.856 0-112-50.144-112-112s50.144-112 112-112 112 50.144 112 112-50.144 112-112 112z" p-id="14391"></path></svg>
