<svg t="1631849191620" class="icon" viewBox="0 0 1024 1024" version="1.1" xmlns="http://www.w3.org/2000/svg" p-id="2169" width="200" height="200"><path d="M847.416 64H368.576C307.04 64 256 114.776 256 176h534.376c31.528 0 57.04 24.64 57.04 56v560C908.976 792 960 741.224 960 680V176c0-61.224-51.032-112-112.576-112z" p-id="2170"></path><path d="M736 232c30.616 0 56 25.36 56 55.944v616.112c0 30.584-25.384 55.944-56 55.944H120c-30.616 0-56-25.36-56-55.944V288.688c0-30.584 25.384-55.944 56-55.944V232zM608 696H184a32 32 0 1 0 0 64h424a32 32 0 1 0 0-64z m0-248H184a32 32 0 1 0 0 64h424a32 32 0 1 0 0-64z" p-id="2171"></path></svg>