<svg t="1598927341446" class="icon" viewBox="0 0 1024 1024" version="1.1" xmlns="http://www.w3.org/2000/svg" p-id="9431" width="200" height="200"><path d="M512 512m-133.36 0a8.335 8.335 0 1 0 266.72 0 8.335 8.335 0 1 0-266.72 0Z" p-id="9432"></path><path d="M944 0 80 0C35.824 0 0 35.824 0 80l0 864c0 44.176 35.824 80 80 80l864 0c44.176 0 80-35.824 80-80L1024 80C1024 35.824 988.176 0 944 0zM896 568.32l-99.104 20.112c-6.736 25.136-16.672 48.944-29.408 70.96l55.856 84.32-79.648 79.648-84.32-55.872c-22.016 12.72-45.824 22.672-70.96 29.408L568.32 896l-112.64 0-20.112-99.104c-25.136-6.72-48.944-16.672-70.96-29.408l-84.304 55.872-79.648-79.648 55.856-84.32c-12.72-22.016-22.672-45.824-29.392-70.96L128 568.32l0-112.64 99.104-20.112c6.72-25.136 16.672-48.944 29.408-70.96l-55.856-84.32 79.648-79.648 84.304 55.856c22.016-12.72 45.824-22.672 70.96-29.408L455.68 128l112.64 0 20.112 99.104c25.136 6.736 48.944 16.672 70.96 29.408l84.32-55.856 79.648 79.648-55.872 84.304c12.72 22.016 22.672 45.824 29.408 70.96L896 455.68 896 568.32z" p-id="9433"></path></svg>