<svg t="1631844641221" class="icon" viewBox="0 0 1024 1024" version="1.1" xmlns="http://www.w3.org/2000/svg" p-id="11284" width="200" height="200"><path d="M768 480H384c-17.6 0-32-14.4-32-32s14.4-32 32-32h384c17.6 0 32 14.4 32 32s-14.4 32-32 32z" p-id="11285"></path><path d="M576 672c-17.6 0-32-14.4-32-32V256c0-17.6 14.4-32 32-32s32 14.4 32 32v384c0 17.6-14.4 32-32 32z" p-id="11286"></path><path d="M976 896H176c-27.2 0-48-20.8-48-48V48c0-27.2 20.8-48 48-48h800c27.2 0 48 20.8 48 48v800c0 27.2-20.8 48-48 48z m-784-64h768V64H192v768zM976 64z" p-id="11287"></path><path d="M752 872h64v88c0 35.2-28.8 64-64 64H64c-35.2 0-64-28.8-64-64V272c0-35.2 28.8-64 64-64h104v64H64v688h688v-88z" p-id="11288"></path></svg>