<svg t="1631760439288" class="icon" viewBox="0 0 1024 1024" version="1.1" xmlns="http://www.w3.org/2000/svg" p-id="4480" width="200" height="200"><path d="M511.993833 0C229.193814 0 0.006167 71.70516 0.006167 160.010792v128.030833c0 88.354965 229.187648 159.998458 511.987666 159.998458s511.987667-71.70516 511.987667-159.998458V160.010792C1023.969167 71.70516 794.756853 0 511.993833 0z m0 544.066291C229.193814 544.066291 0.006167 472.324132 0.006167 384.006167v192.003083c0 88.342631 229.187648 159.998458 511.987666 159.998458s511.987667-71.692827 511.987667-159.998458V384.092499c-0.012333 88.305632-229.224647 159.973792-511.987667 159.973792z m0 287.979958C229.193814 832.046249 0.006167 760.353423 0.006167 672.060124v191.929084c0 88.367298 229.187648 160.010792 511.987666 160.010792s511.987667-71.70516 511.987667-160.010792V672.060124c0 88.342631-229.224647 159.998458-511.987667 159.998459z" p-id="4481"></path></svg>