<svg t="1630469575504" class="icon" viewBox="0 0 1024 1024" version="1.1" xmlns="http://www.w3.org/2000/svg" p-id="2165" width="200" height="200"><path d="M269.692 269.692V872a20.77 20.77 0 0 0 20.77 20.77h443.076a20.77 20.77 0 0 0 20.77-20.77V269.692H269.692z m346.154-69.23V152a20.77 20.77 0 0 0-20.77-20.77H428.924a20.77 20.77 0 0 0-20.77 20.77v48.462h207.693z m69.23 0h242.309a34.615 34.615 0 1 1 0 69.23H823.538V892.77c0 38.236-30.994 69.231-69.23 69.231H269.692c-38.236 0-69.23-30.995-69.23-69.23V269.691H96.615a34.615 34.615 0 0 1 0-69.23h242.308V131.23c0-38.236 30.995-69.231 69.23-69.231h207.693c38.236 0 69.23 30.995 69.23 69.23v69.232zM442.77 408.154a34.615 34.615 0 0 1 34.616 34.615v276.923a34.615 34.615 0 0 1-69.231 0V442.77a34.615 34.615 0 0 1 34.615-34.615z m138.462 0a34.615 34.615 0 0 1 34.615 34.615v276.923a34.615 34.615 0 0 1-69.23 0V442.77a34.615 34.615 0 0 1 34.615-34.615z" p-id="2166"></path></svg>