<svg t="1630469678046" class="icon" viewBox="0 0 1024 1024" version="1.1" xmlns="http://www.w3.org/2000/svg" p-id="6449" width="200" height="200"><path d="M926.72 198.656H684.544v-69.12c0-38.4-31.232-69.12-69.12-69.12H407.552c-38.4 0-69.12 31.232-69.12 69.12v69.12H96.256c-18.944 0-34.816 15.36-34.816 34.816s15.36 34.816 34.816 34.816h103.936v623.104c0 38.4 31.232 69.12 69.12 69.12h484.864c38.4 0 69.12-31.232 69.12-69.12V267.776H926.72c18.944 0 34.816-15.36 34.816-34.816s-15.872-34.304-34.816-34.304zM476.16 718.848c0 45.056-70.144 45.056-70.144 0v-279.04c0-45.056 70.144-45.056 70.144 0v279.04z m138.24 0c0 45.056-70.144 45.056-70.144 0v-279.04c0-45.056 70.144-45.056 70.144 0v279.04z m1.024-520.704c0 1.024-0.512 2.048-1.536 2.048-0.512 0-0.512 0.512-1.024 0.512h-202.24c-1.536 0-3.072-0.512-3.072-2.56v-28.672c-2.048-18.432 9.728-38.912 34.816-38.912h138.24c23.552 0 34.816 17.408 34.304 34.816v32.768z" p-id="6450"></path></svg>