<svg t="1630469746927" class="icon" viewBox="0 0 1024 1024" version="1.1" xmlns="http://www.w3.org/2000/svg" p-id="6723" width="200" height="200"><path d="M921.6 898.367c18.853 0 34.133 15.394 34.133 34.372A34.247 34.247 0 0 1 921.6 967.11H102.4a34.247 34.247 0 0 1-34.133-34.36 34.247 34.247 0 0 1 34.133-34.384zM603.625 220.08l0.114 0.114 161.007 162.133a22.756 22.756 0 0 1 0 32.074L418.293 763.267a170.337 170.337 0 0 1-83.252 46.148l-162.224 36.728c-25.395 5.745-47.582-18.114-40.22-43.259l46.182-157.696a172.1 172.1 0 0 1 43.008-72.931l349.65-352.063a22.756 22.756 0 0 1 32.188-0.114z m259.038-114.904l16.088 16.202c48.88 49.22 48.88 129.013 0 178.222l-33.655 33.905a22.756 22.756 0 0 1-32.188 0.114l-0.114-0.114-161.007-162.133a22.756 22.756 0 0 1 0-32.085l33.872-34.11a124.553 124.553 0 0 1 177.004 0z" p-id="6724"></path></svg>