<svg t="1630469706798" class="icon" viewBox="0 0 1024 1024" version="1.1" xmlns="http://www.w3.org/2000/svg" p-id="6587" width="200" height="200"><path d="M921.6 887.467a34.133 34.133 0 0 1 0 68.266H102.4a34.133 34.133 0 0 1 0-68.266z m-64.17-782.53l16.099 16.1c48.924 48.89 48.924 128.17 0 177.072L412.58 758.761a170.871 170.871 0 0 1-83.33 45.853L166.854 841.09c-25.43 5.723-47.639-17.977-40.266-42.974l46.228-156.672a170.712 170.712 0 0 1 43.065-72.454l464.35-464.054c48.924-48.89 128.262-48.89 177.186 0zM644.607 237.124L264.192 617.29a102.423 102.423 0 0 0-25.828 43.463l-29.81 100.966 105.7-23.745a102.525 102.525 0 0 0 49.994-27.5l377.014-376.775-96.643-96.575z m83.945-83.9l-35.624 35.613 96.643 96.575 35.613-35.602a56.889 56.889 0 0 0 0-80.486l-16.1-16.1a56.969 56.969 0 0 0-80.532 0z" p-id="6588"></path></svg>