<svg t="1630978104026" class="icon" viewBox="0 0 1024 1024" version="1.1" xmlns="http://www.w3.org/2000/svg" p-id="3799" width="200" height="200"><path d="M866.986667 696.106667l-168.362667-39.381334-44.714667-85.461333 220.202667-192.938667a168.533333 168.533333 0 0 1 108.842667 157.44 170.368 170.368 0 0 1-115.968 160.341334m-126.592 199.082666a119.893333 119.893333 0 0 1-72.917334-24.917333l33.28-173.44 152.96 35.797333c4.864 13.226667 7.338667 27.306667 7.338667 41.941334a120.746667 120.746667 0 0 1-120.661333 120.618666m-112.170667-24.917333a251.818667 251.818667 0 0 1-208.725333 110.634667 252.928 252.928 0 0 1-247.722667-302.933334l219.733333-198.613333 224.256 102.229333 49.664 94.848zM41.130667 488.234667A170.453333 170.453333 0 0 1 157.013333 327.893333l167.978667 39.68 39.466667 84.266667-214.784 194.133333a168.832 168.832 0 0 1-108.586667-157.738666m242.517333-359.424a120.874667 120.874667 0 0 1 73.301334 24.746666L323.413333 327.594667 170.368 291.413333a120.874667 120.874667 0 0 1-7.338667-41.984 120.746667 120.746667 0 0 1 120.618667-120.661333m113.194667 25.045333a251.818667 251.818667 0 0 1 459.690666 142.421334c0 17.024-1.578667 33.28-4.821333 49.536l-225.365333 197.461333-223.36-101.802667-43.605334-93.098666z m625.578666 382.421334a200.874667 200.874667 0 0 0-132.864-189.44 284.757333 284.757333 0 0 0 5.333334-54.869334 288.768 288.768 0 0 0-288.426667-288.426666 287.872 287.872 0 0 0-233.642667 119.637333 152.533333 152.533333 0 0 0-93.738666-32.085333 153.258667 153.258667 0 0 0-143.488 206.464 203.52 203.52 0 0 0-133.973334 190.208 201.088 201.088 0 0 0 133.546667 189.994666 292.437333 292.437333 0 0 0-5.290667 54.826667 288.042667 288.042667 0 0 0 287.744 287.744 286.549333 286.549333 0 0 0 233.514667-120.106667c26.88 21.12 59.733333 32.682667 93.866667 32.682667a153.258667 153.258667 0 0 0 143.488-206.464 203.52 203.52 0 0 0 133.973333-190.165333" p-id="3800"></path></svg>