<svg t="1634699108699" class="icon" viewBox="0 0 1280 1024" version="1.1" xmlns="http://www.w3.org/2000/svg" p-id="15859" width="200" height="200"><path d="M1039.981061 960.00152h-209.979013a28.927313 28.927313 0 0 1-21.247496-8.767792 28.927313 28.927313 0 0 1-8.767792-21.247495V830.084605c0-8.319802 2.94393-15.423634 8.767792-21.247495a28.927313 28.927313 0 0 1 21.247496-8.767792h209.979013c21.695485 0 40.447039-7.935812 56.254664-23.743436s23.743436-34.559179 23.743436-56.254664v-479.9886c0-21.695485-7.935812-40.447039-23.743436-56.254664a76.862175 76.862175 0 0 0-56.254664-23.743436h-209.979013a28.927313 28.927313 0 0 1-21.247496-8.767792 28.927313 28.927313 0 0 1-8.767792-21.247495V30.103605c0-8.319802 2.94393-15.423634 8.767792-21.247495A28.927313 28.927313 0 0 1 830.002048 0.024319h209.979013c66.686416 0 123.325071 23.359445 169.979963 70.014338C1256.679914 116.693549 1279.975361 173.332203 1279.975361 240.01862v479.9886c0 66.686416-23.359445 123.325071-70.014337 169.979963-46.654892 46.71889-103.293547 70.014337-169.979963 70.014337z m-117.50121-502.516065a57.854626 57.854626 0 0 1 17.535584 42.558989c0 16.639605-5.88786 30.783269-17.535584 42.494991l-419.958026 419.958026a57.854626 57.854626 0 0 1-42.558989 17.535583 57.854626 57.854626 0 0 1-42.494991-17.535583 57.854626 57.854626 0 0 1-17.471585-42.494991v-239.9943H59.972336a57.854626 57.854626 0 0 1-42.494991-17.471585A57.854626 57.854626 0 0 1 0.00576 619.977596v-239.994301c0-16.639605 5.823862-30.783269 17.471585-42.49499A57.854626 57.854626 0 0 1 59.972336 320.01672H399.99626V80.022419c0-16.639605 5.823862-30.847267 17.471585-42.49499a57.854626 57.854626 0 0 1 42.558989-17.471585c16.639605 0 30.783269 5.759863 42.494991 17.471585l419.958026 419.958026z" p-id="15860"></path></svg>