<svg t="1622643404432" class="icon" viewBox="0 0 1024 1024" version="1.1" xmlns="http://www.w3.org/2000/svg" p-id="3651" width="200" height="200"><path d="M893.23 233.47c19.7 18.84 31.27 42.52 34.76 70.9v517.77c-1.14 31.31-11.89 56.71-32.16 76.12-20.27 19.41-44.87 29.4-73.85 30.04H204.94c-31.27-1.15-56.63-11.9-76.02-32.2-19.39-20.3-29.43-44.94-30-73.96V204.32c1.14-31.32 11.89-56.71 32.16-76.12 20.27-19.41 44.88-29.41 73.86-30.04h205.93c14.49 0.57 28.79 4.52 43.03 11.78 14.17 7.25 25.61 16.42 34.32 27.43l33.88 39.14c5.21 8.72 11.12 15.53 17.8 20.43 6.67 4.97 15.51 7.39 26.5 7.39h250.3c31.34 0.56 56.82 10.3 76.53 29.14z m-185.8 355.88c5.69-14.77 3.84-27.63-5.61-38.49L540.38 376.12c-3.32-3.33-7.01-6.06-11.07-8.06-4.06-2-9.08-1.7-15.13 1.04-6.05 0.67-11.07 2.22-15.13 4.58-3.98 2.37-7.67 5.17-11.07 8.57L326.55 550.93c-6.05 6.06-9.45 12.26-10.11 18.69-0.66 6.43 0.66 13.01 4.06 19.72 3.39 6.73 7.9 11.6 13.65 14.63 5.68 3.03 11.95 4.58 18.67 4.58h83.75V724.7c0.66 10.05 4.87 18.99 12.62 26.75 7.67 7.76 16.6 11.97 26.71 12.63h76.74c26.19 0 39.33-13.15 39.33-39.38V608.56h77.62c19.54 2 32.08-4.43 37.84-19.21z" p-id="3652"></path></svg>
