<svg t="1630318041454" class="icon" viewBox="0 0 1024 1024" version="1.1" xmlns="http://www.w3.org/2000/svg" p-id="14683" width="200" height="200"><path d="M512 384.213333a170.666667 170.666667 0 1 1 0 341.333334 170.666667 170.666667 0 0 1 0-341.333334z m0 64a106.666667 106.666667 0 1 0 0 213.333334 106.666667 106.666667 0 0 0 0-213.333334zM512 234.666667c196.864 0 366.762667 134.4 413.909333 322.730666a32 32 0 1 1-62.08 15.573334 362.794667 362.794667 0 0 0-703.701333 0.170666 32 32 0 0 1-62.08-15.488A426.794667 426.794667 0 0 1 512 234.666667z" p-id="14684"></path></svg>