<svg t="1630317975393" class="icon" viewBox="0 0 1024 1024" version="1.1" xmlns="http://www.w3.org/2000/svg" p-id="9908" width="200" height="200"><path d="M929.28 94.72a32 32 0 0 1 3.114667 41.642667l-3.114667 3.584-172.117333 172.16a426.069333 426.069333 0 0 1 168.746666 245.333333 32 32 0 1 1-62.08 15.530667 362.24 362.24 0 0 0-152.746666-214.784l-77.226667 77.226666A170.666667 170.666667 0 0 1 392.533333 676.693333L139.946667 929.28a32 32 0 0 1-48.341334-41.685333l3.114667-3.584 260.821333-260.864-0.042666-0.085334 51.2-51.114666 122.453333-122.453334H529.066667l122.922666-122.794666-0.042666-0.085334 48.341333-48.213333L884.053333 94.72a32 32 0 0 1 45.226667 0z m-340.650667 385.92l-150.826666 150.869333a106.666667 106.666667 0 0 0 150.826666-150.826666zM512 234.666667c42.666667 0 84.053333 6.314667 123.264 18.133333l-52.778667 52.736a362.794667 362.794667 0 0 0-422.357333 267.605333 32 32 0 0 1-62.08-15.488A426.794667 426.794667 0 0 1 512 234.666667z m-8.32 149.76l-162.176 162.133333a170.794667 170.794667 0 0 1 162.176-162.133333z" p-id="9909"></path></svg>