<svg t="1631526639160" class="icon" viewBox="0 0 1024 1024" version="1.1" xmlns="http://www.w3.org/2000/svg" p-id="28228" width="200" height="200"><path d="M962.624 992 61.44 992C27.52 992 0 964.032 0 929.408L0 632c0.576 0 1.024 0 1.6 0L180.224 32l663.552 0 178.624 600c0.576 0 1.088 0 1.536 0l0 297.408C1024 964.032 996.48 992 962.624 992zM765.44 94.656 256 94.656 104.96 616.384l174.08 0 98.944 187.456L640 803.84l94.72-187.456 187.776 0L765.44 94.656zM256.896 491.136l510.208 0 11.712 41.728L245.248 532.864 256.896 491.136zM286.144 386.816l451.776 0 11.712 41.728L274.496 428.544 286.144 386.816zM315.392 282.432l393.28 0 11.712 41.728-416.64 0L315.392 282.432zM344.576 178.112l334.848 0 11.712 41.728L332.864 219.84 344.576 178.112z" p-id="28229"></path></svg>