<svg t="1632879770015" class="icon" viewBox="0 0 1072 1024" version="1.1" xmlns="http://www.w3.org/2000/svg" p-id="10134" width="200" height="200"><path d="M67.02061 1023.999177A68.996648 68.996648 0 0 1 0 963.318354v-207.154614a67.638122 67.638122 0 0 1 55.864231-55.576059H1016.83604a57.634431 57.634431 0 0 1 55.781896 55.576059V963.318354a64.838735 64.838735 0 0 1-67.02061 60.639655z m692.724699-161.705748a84.434442 84.434442 0 0 0 89.456871 80.894041 81.346883 81.346883 0 1 0 0-161.870417 84.434442 84.434442 0 0 0-89.456871 80.935209z m-223.456925-60.639655v121.320478a22.477428 22.477428 0 0 0 44.74902 0v-121.320478a22.477428 22.477428 0 0 0-44.74902 0z m-89.456871 0v121.320478a22.477428 22.477428 0 0 0 44.74902 0v-121.320478a22.477428 22.477428 0 0 0-44.74902 0z m-89.456871 0v121.320478a22.518596 22.518596 0 0 0 44.831354 0v-121.320478a22.518596 22.518596 0 0 0-44.831354 0z m-89.251034 0v121.320478a22.477428 22.477428 0 0 0 44.74902 0v-121.320478a22.477428 22.477428 0 0 0-44.74902 0z m-89.456871 0v121.320478a22.518596 22.518596 0 0 0 44.831355 0v-121.320478a22.518596 22.518596 0 0 0-44.831355 0z m-89.374536 0v121.320478a22.477428 22.477428 0 0 0 44.707852 0v-121.320478a22.477428 22.477428 0 0 0-44.749019 0z m735.82702 107.282377a53.229514 53.229514 0 0 1 0-93.285444 55.946566 55.946566 0 0 1 54.958547 0 53.517686 53.517686 0 0 1 0 93.367779 55.946566 55.946566 0 0 1-54.835045 0z m218.475662-272.816698H28.817216c-11.526886 5.392936-17.290329 5.392936-28.817216 10.66237L115.4747 58.293111A78.218157 78.218157 0 0 1 190.440628 0h691.860182a91.474076 91.474076 0 0 1 80.647037 58.293111l109.587754 588.447545c-5.928113-5.392936-17.290329-5.392936-28.89955-10.66237zM213.247396 360.503369c0 106.088521 144.086079 190.852303 322.917486 190.852302 184.512515 0 322.958653-84.804949 322.958653-190.852302s-138.446138-190.852303-322.958653-190.852303c-178.79024 0-322.917486 84.722614-322.917486 190.852303z m194.310369 106.500195c-80.441199-24.082959-129.965643-68.543806-129.965643-116.668556 0-74.389584 116.380384-134.741067 259.972453-134.741067s259.931286 60.227981 259.931286 134.658732c0 48.207085-49.400941 92.626765-129.965643 116.750891a459.716926 459.716926 0 0 1-129.965643 18.031344 460.29327 460.29327 0 0 1-130.00681-18.031344z" p-id="10135"></path></svg>