<svg t="1599184392099" class="icon" viewBox="0 0 1177 1024" version="1.1" xmlns="http://www.w3.org/2000/svg" p-id="24344" width="200" height="200"><path d="M10.483933 377.066282A488.229324 488.229324 0 0 0 40.006364 460.855376h309.558893l57.679662-129.352614a36.348426 36.348426 0 0 1 32.082178-21.672535h1.535849a36.519076 36.519076 0 0 1 32.252829 19.283437l133.61886 244.541287 106.656179-184.472527a36.860375 36.860375 0 0 1 63.481758 0l45.05157 75.08595h307.169795c54.096014-110.069177 69.454504-221.844852 9.385743-319.115287C1077.387021 60.340093 1005.202119 12.387475 923.972774 2.148482 773.630224-16.964305 631.990819 97.371119 616.802979 110.51116a36.860375 36.860375 0 0 1-47.270019 0C554.003821 97.371119 412.876365-16.964305 262.533815 2.148482c-81.570646 10.238993-153.584897 58.532911-215.189506 143.516554A279.353864 279.353864 0 0 0 10.483933 377.066282z" p-id="24345"></path><path d="M592.229395 1024c75.939199-54.607964 350.856166-260.753026 494.88467-486.522825H801.104856a36.860375 36.860375 0 0 1-31.570229-17.064989l-23.549685-39.249474-108.192027 187.714875a36.860375 36.860375 0 0 1-31.911529 18.430188 37.031025 37.031025 0 0 1-31.911529-19.283437L444.275944 430.138396l-37.031025 83.106495a36.860375 36.860375 0 0 1-34.129978 21.843185H79.426487C222.431092 768.025171 516.631496 973.828933 592.229395 1024z" p-id="24346"></path></svg>