<svg t="1630489179541" class="icon" viewBox="0 0 1024 1024" version="1.1" xmlns="http://www.w3.org/2000/svg" p-id="1897" width="200" height="200"><path d="M557 567.36l83.18-83.18c17.574-17.574 46.066-17.574 63.64 0 17.574 17.574 17.574 46.066 0 63.64l-160 160c-17.534 17.534-45.95 17.58-63.54 0.1l-160-159c-17.628-17.52-17.718-46.012-0.2-63.64 17.52-17.628 46.012-17.718 63.64-0.2l83.28 82.76V510c0-135.31 109.69-245 245-245h150c24.852 0 45 20.148 45 45s-20.148 45-45 45h-150c-85.604 0-155 69.396-155 155v57.36z m196.546 105.64c-24.852 0-45-20.148-45-45s20.148-45 45-45H836c41.42 0 75 33.58 75 75v180c0 41.42-33.58 75-75 75H186c-41.42 0-75-33.58-75-75v-180c0-41.42 33.58-75 75-75h80.276c24.852 0 45 20.148 45 45s-20.148 45-45 45H201v150h620v-150h-67.454z" p-id="1898"></path></svg>