<svg t="1631797185502" class="icon" viewBox="0 0 1024 1024" version="1.1" xmlns="http://www.w3.org/2000/svg" p-id="12969" width="200" height="200"><path d="M102.4 512C102.4 285.7984 285.7984 102.4 512 102.4s409.6 183.3984 409.6 409.6-183.3984 409.6-409.6 409.6S102.4 738.2016 102.4 512zM512 34.133333C248.081067 34.133333 34.133333 248.081067 34.133333 512s213.947733 477.866667 477.866667 477.866667 477.866667-213.947733 477.866667-477.866667S775.918933 34.133333 512 34.133333z m34.133333 273.066667a34.133333 34.133333 0 1 0-68.266666 0v17.066667a34.133333 34.133333 0 1 0 68.266666 0V307.2z m0 136.533333a34.133333 34.133333 0 1 0-68.266666 0v273.066667a34.133333 34.133333 0 1 0 68.266666 0v-273.066667z" p-id="12970"></path></svg>