<svg t="1634804641147" class="icon" viewBox="0 0 1024 1024" version="1.1" xmlns="http://www.w3.org/2000/svg" p-id="22072" width="200" height="200"><path d="M954.060603 547.218106l-1.619894-7.91118c-8.467859-36.743856-24.074302-72.071456-47.453778-101.828176-49.021483-64.843844-130.522706-103.676267-211.9349-100.550067-45.13599 1.404999-90.070388 14.606673-128.270409 38.706557-120.461559-79.247902-240.681618-158.876474-361.180016-238.047628L96.190271 159.444409c-10.999518 16.277732-21.846564 32.656771-32.55444 49.123814l21.910009 107.169835c22.669302 15.163351 45.465494 30.162974 68.299549 45.060265 12.593829-2.708692 25.225521-5.164626 37.858236-7.78429 2.569522 12.593829 5.189186 25.200962 7.670703 37.833677 22.707165 15.113209 45.503357 30.162974 68.361971 45.060265 7.328919-1.569752 14.670118-3.037173 21.986757-4.568039 1.644453 7.391341 3.13848 14.808264 4.631484 22.226211 16.454764 10.809183 32.79594 21.796422 49.364291 32.428573 7.315616-1.556449 14.657838-3.025916 21.985734-4.569062 1.607614 7.392364 3.113921 14.809287 4.607948 22.226211 25.37697 16.822131 50.856271 33.505092 76.235288 50.339502-11.213389 69.235874 7.973602 142.78703 51.643194 197.759039 39.174208 50.262754 97.879238 84.995813 160.938436 95.04468 28.933983 5.100158 58.629305 4.088108 87.563288-0.493234l10.734482-2.176572c18.606777-4.847401 37.112246-10.506285 54.375421-19.113313 61.313437-28.770254 109.841687-83.160002 131.865283-147.054217C958.667527 636.275421 961.540971 590.759785 954.060603 547.218106zM453.890023 520.308223c-18.189268-11.935843-36.250622-24.047696-54.528917-35.882232-2.987031-13.582343-5.594415-27.26497-8.467859-40.884153-13.45443 2.569522-26.807552 5.721305-40.313148 8.024767-9.531074-4.809539-18.024515-11.784394-27.239388-17.328667-2.873444-13.56904-5.569856-27.175943-8.392134-40.756239-12.948917 2.568499-25.859971 5.340635-38.795585 7.872295-2.861164 0.772596-5.037736-1.885953-7.366781-3.088338-13.31526-9.265014-27.465538-17.441231-40.402175-27.201525-4.189416-18.567891-7.644097-37.32714-11.594059-55.945173-18.783809 3.835352-37.5932 7.568373-56.364729 11.517311-14.302751-9.188266-28.364001-18.732643-42.642193-27.985378-1.290389-1.076518-3.341095-1.810229-3.620457-3.709485-5.240351-25.061792-10.202363-50.173726-15.467273-75.235518-0.13917-1.911536-1.315972-4.125971-0.024559-5.885034 3.670599-5.936199 7.847735-11.58178 11.45489-17.555841 26.75741 16.97358 52.971445 34.833343 79.527265 52.148707 75.994812 50.135864 152.015206 100.233865 227.997738 150.407592 5.417383 3.607154 11.518335 8.126075 18.417465 6.92369 8.227382-0.747014 14.771425-9.227152 13.390985-17.353227-0.355087-5.809309-4.810562-10.31595-9.417487-13.378705-97.816816-64.299445-195.366549-129.043005-293.272393-193.21556 16.644075-2.99931 33.111119-6.935969 49.757241-9.872858 3.226484 0.848321 5.758144 3.342118 8.569166 5.025457 110.460788 72.918753 220.999346 145.69936 331.434551 218.644719-28.858258 24.529673-53.021587 54.818513-68.818365 89.323375C461.889207 496.196059 458.167442 508.37238 453.890023 520.308223zM918.379962 650.742924c-16.304338 62.794162-61.375859 117.563556-120.271224 145.181567-35.314297 17.036002-75.197656 24.466228-114.296139 21.529339-57.337893-4.036943-112.524796-31.353079-150.711514-74.134441-19.910469-22.086018-35.428907-48.1353-45.035706-76.260871-16.757662-47.996131-16.733103-101.777011 0.911766-149.509129 21.213137-59.95858 69.400626-109.751636 128.802528-132.827191 37.932937-14.922874 79.980589-19.655665 120.194476-12.707416 70.4137 11.353582 134.080741 58.401108 164.837232 122.675994 4.683672 8.645914 7.93574 17.910928 11.291161 27.124777C927.974481 563.166333 929.783687 608.593965 918.379962 650.742924zM829.674665 472.640574c-12.858866-14.189164-29.021987-24.618701-44.275389-35.985586C720.012056 535.333428 654.459061 633.896234 589.336878 732.7251c13.289678 7.442506 25.89681 16.21531 39.959084 22.200628 31.68156 14.151301 67.667146 18.416442 101.830223 12.404518 28.327162-4.898567 55.413054-16.783245 78.094636-34.402531 25.898857-20.011776 45.946448-47.350424 57.365522-77.94421 12.276604-32.745798 14.403035-69.173452 6.025227-103.119589C865.521081 522.345626 850.573647 494.727615 829.674665 472.640574zM826.144258 665.526629c-16.745383 29.125341-43.945885 52.160987-75.653027 63.552431-37.301558 13.809517-80.299861 11.265578-115.613134-7.05058 52.870138-79.792301 105.740276-159.572322 158.596088-239.352343 26.252921 21.593807 44.124963 52.871161 49.821709 86.286202C849.066317 601.821725 843.042113 636.693953 826.144258 665.526629z" fill="" p-id="22073"></path></svg>