<svg t="1631281186202" class="icon" viewBox="0 0 1024 1024" version="1.1" xmlns="http://www.w3.org/2000/svg" p-id="3266" width="200" height="200"><path d="M223.777998 112.650149v22.327056c0 37.55005 30.445986 69.010902 69.010902 67.996036h439.437066c18.267592 0 35.520317-7.104063 48.713578-20.297324 13.193261-13.193261 20.297324-30.445986 20.297324-48.713578v-22.327057h91.337959c24.356789 0 47.698712 9.133796 64.951437 26.386522 17.252725 17.252725 27.401388 40.594648 27.401387 64.951437v729.688801c0 24.356789-10.148662 47.698712-27.401387 64.951437-17.252725 17.252725-40.594648 26.386521-64.951437 26.386521h-761.149654c-24.356789 0-47.698712-9.133796-64.951437-26.386521-17.252725-17.252725-26.386521-40.594648-26.386521-64.951437V203.988107c0-24.356789 10.148662-47.698712 27.401388-64.951437 17.252725-17.252725 40.594648-26.386521 64.951437-26.386521h91.337958z m174.556987 245.597621c-12.178394 0-23.341923 5.074331-32.475718 13.193261-8.11893 8.11893-13.193261 20.297324-13.193261 32.475718 0 12.178394 5.074331 23.341923 13.193261 32.475719 8.11893 8.11893 20.297324 13.193261 32.475718 13.19326h369.411298c12.178394 0 23.341923-5.074331 32.475719-13.19326 8.11893-8.11893 13.193261-20.297324 13.193261-32.475719 0-12.178394-5.074331-23.341923-13.193261-32.475718-8.11893-8.11893-20.297324-13.193261-32.475719-13.193261H398.334985z m-138.021804 0c-16.237859 0-31.460852 9.133796-39.579782 22.327057-8.11893 14.208127-8.11893 31.460852 0 45.668979 10.148662 18.267592 31.460852 26.386521 51.758177 21.31219 20.297324-5.074331 33.490585-23.341923 34.505451-44.654113 0-24.356789-21.31219-44.654113-46.683846-44.654113z m0 182.675917c-16.237859 0-31.460852 9.133796-39.579782 22.327056-8.11893 14.208127-8.11893 31.460852 0 45.668979 10.148662 18.267592 31.460852 26.386521 51.758177 21.312191 20.297324-5.074331 33.490585-23.341923 34.505451-43.639247 0-12.178394-5.074331-23.341923-13.193261-32.475719-9.133796-8.11893-21.31219-13.193261-33.490585-13.19326z m92.352825 45.668979c0 12.178394 5.074331 23.341923 13.193261 32.475719 8.11893 8.11893 20.297324 13.193261 32.475718 13.19326h369.411298c12.178394 0 23.341923-5.074331 32.475719-13.19326 8.11893-8.11893 13.193261-20.297324 13.193261-32.475719 0-12.178394-5.074331-23.341923-13.193261-32.475719-8.11893-8.11893-20.297324-13.193261-32.475719-13.19326H398.334985c-12.178394 0-23.341923 5.074331-32.475718 13.19326-8.11893 8.11893-13.193261 20.297324-13.193261 32.475719z m-92.352825 137.006938c-12.178394 0-23.341923 5.074331-32.475718 13.19326-8.11893 8.11893-13.193261 20.297324-13.193261 32.475719 0 12.178394 5.074331 23.341923 13.193261 32.475718 8.11893 8.11893 20.297324 13.193261 32.475718 13.193261 12.178394 0 23.341923-5.074331 32.475719-13.193261 8.11893-8.11893 13.193261-20.297324 13.193261-32.475718 0-12.178394-5.074331-23.341923-13.193261-32.475719-8.11893-9.133796-20.297324-13.193261-32.475719-13.19326z m138.021804 0c-12.178394 0-23.341923 5.074331-32.475718 13.19326-8.11893 8.11893-13.193261 20.297324-13.193261 32.475719 0 12.178394 5.074331 23.341923 13.193261 32.475718 8.11893 8.11893 20.297324 13.193261 32.475718 13.193261h369.411298c12.178394 0 23.341923-5.074331 32.475719-13.193261 8.11893-8.11893 13.193261-20.297324 13.193261-32.475718 0-12.178394-5.074331-23.341923-13.193261-32.475719-8.11893-8.11893-20.297324-13.193261-32.475719-13.19326H398.334985z m28.416254-653.573836c8.11893-40.594648 43.639247-70.025768 85.248761-70.025768 41.609514 0 77.129832 29.43112 85.248761 70.025768h123.813677c29.43112 0 52.773043 23.341923 52.773043 52.773043 0 29.43112-23.341923 52.773043-52.773043 52.773042H302.937562c-29.43112 0-52.773043-23.341923-52.773043-52.773042 0-29.43112 23.341923-52.773043 52.773043-52.773043h123.813677z" p-id="3267"></path></svg>