<svg t="1631090900555" class="icon" viewBox="0 0 1024 1024" version="1.1" xmlns="http://www.w3.org/2000/svg" p-id="24294" width="200" height="200"><path d="M432 599.04c103.68 0 188.16-84.352 188.16-188.16s-84.352-188.16-188.16-188.16-188.16 84.352-188.16 188.16 84.48 188.16 188.16 188.16zM592.256 629.504H271.744c-69.632 0-126.336 56.704-126.336 126.336v116.224h573.312v-116.224c-0.128-69.632-56.832-126.336-126.464-126.336z" p-id="24295"></path><path d="M842.624 411.008c0-103.68-84.352-188.16-188.16-188.16-10.624 0-19.2 8.576-19.2 19.2s8.576 19.2 19.2 19.2c82.56 0 149.76 67.2 149.76 149.76 0 61.44-36.864 115.968-93.824 139.008-9.856 3.968-14.592 15.104-10.624 24.96 3.072 7.424 10.24 12.032 17.792 12.032 2.432 0 4.864-0.512 7.168-1.408 71.552-28.928 117.888-97.408 117.888-174.592zM817.536 629.504h-54.912c-10.624 0-19.2 8.576-19.2 19.2s8.576 19.2 19.2 19.2h54.912c48.512 0 87.936 39.424 87.936 87.936v97.024c0 10.624 8.576 19.2 19.2 19.2s19.2-8.576 19.2-19.2v-97.024c0.128-69.632-56.576-126.336-126.336-126.336z" p-id="24296"></path></svg>