<svg t="1632879366952" class="icon" viewBox="0 0 1024 1024" version="1.1" xmlns="http://www.w3.org/2000/svg" p-id="6048" width="200" height="200"><path d="M64 213.3V640c0 23.6 19.1 42.7 42.7 42.7h3.2c11.8 0 21.3 9.6 21.3 21.3v106.7c0 23.6 19.1 42.7 42.7 42.7h676.3c23.6 0 42.7-19.1 42.7-42.7V704c0-11.8 9.6-21.3 21.3-21.3h3.2c23.6 0 42.7-19.1 42.7-42.7V213.3c0-23.6-19.1-42.7-42.7-42.7H106.7c-23.6 0.1-42.7 19.2-42.7 42.7z m134.4 597.4c-12.4 0-22.4-10-22.4-22.4v-40.5c0-12.4 10-22.4 22.4-22.4 12.4 0 22.4 10 22.4 22.4v40.5c0 12.3-10 22.4-22.4 22.4z m89.6 0c-12.4 0-22.4-10-22.4-22.4v-40.5c0-12.4 10-22.4 22.4-22.4 12.4 0 22.4 10 22.4 22.4v40.5c0 12.3-10 22.4-22.4 22.4z m89.6 0c-12.4 0-22.4-10-22.4-22.4v-40.5c0-12.4 10-22.4 22.4-22.4 12.4 0 22.4 10 22.4 22.4v40.5c0 12.3-10 22.4-22.4 22.4z m89.6 0c-12.4 0-22.4-10-22.4-22.4v-40.5c0-12.4 10-22.4 22.4-22.4 12.4 0 22.4 10 22.4 22.4v40.5c0 12.3-10 22.4-22.4 22.4z m89.6 0c-12.4 0-22.4-10-22.4-22.4v-40.5c0-12.4 10-22.4 22.4-22.4 12.4 0 22.4 10 22.4 22.4v40.5c0 12.3-10 22.4-22.4 22.4z m89.6 0c-12.4 0-22.4-10-22.4-22.4v-40.5c0-12.4 10-22.4 22.4-22.4 12.4 0 22.4 10 22.4 22.4v40.5c0 12.3-10 22.4-22.4 22.4z m89.6 0c-12.4 0-22.4-10-22.4-22.4v-40.5c0-12.4 10-22.4 22.4-22.4 12.4 0 22.4 10 22.4 22.4v40.5c0 12.3-10 22.4-22.4 22.4z m89.6 0c-12.4 0-22.4-10-22.4-22.4v-40.5c0-12.4 10-22.4 22.4-22.4 12.4 0 22.4 10 22.4 22.4v40.5c0 12.3-10 22.4-22.4 22.4z m0-526.8c24.7 0 44.8 20.1 44.8 44.8v166.4c0 24.7-20.1 44.8-44.8 44.8-24.7 0-44.8-20.1-44.8-44.8V328.7c0-24.8 20.1-44.8 44.8-44.8z m-205.3 0c24.7 0 44.8 20.1 44.8 44.8v166.4c0 24.7-20.1 44.8-44.8 44.8-24.7 0-44.8-20.1-44.8-44.8V328.7c0-24.8 20-44.8 44.8-44.8z m-209.1 0c24.7 0 44.8 20.1 44.8 44.8v166.4c0 24.7-20.1 44.8-44.8 44.8-24.7 0-44.8-20.1-44.8-44.8V328.7c0-24.8 20.1-44.8 44.8-44.8z m-212.8 0c24.7 0 44.8 20.1 44.8 44.8v166.4c0 24.7-20.1 44.8-44.8 44.8-24.7 0-44.8-20.1-44.8-44.8V328.7c0-24.8 20.1-44.8 44.8-44.8z m-23.5 320H849c11.8 0 21.3 9.6 21.3 21.3 0 11.8-9.6 21.3-21.3 21.3H174.9c-11.8 0-21.3-9.6-21.3-21.3 0-11.8 9.6-21.3 21.3-21.3z" p-id="6049"></path></svg>