<svg t="1620288693153" class="icon" viewBox="0 0 1024 1024" version="1.1" xmlns="http://www.w3.org/2000/svg" p-id="2728" width="200" height="200"><path d="M128 704h64V447.36H128V704z m64-320.64V352l32-32h283.52l27.52 16 27.52 48h365.44l32 32v512l-32 32h-704l-32-32V768H96l-32-32v-576l32-32h282.88l28.16 16 27.52 48h365.44l32 32V384l-64-1.92V256H416l-27.52-16L360.96 192H128v191.36h64z m324.48 48.64L488.96 384H256v192h201.6l26.24-47.36L512 512h384V448H544l-27.52-16zM476.8 640H256v256h640V576H531.2l-26.24 47.36-28.16 16.64z" p-id="2729"></path></svg>
