<svg t="1598924733941" class="icon" viewBox="0 0 1024 1024" version="1.1" xmlns="http://www.w3.org/2000/svg" p-id="16177" width="200" height="200"><path d="M868.5056 2.304H188.16A151.552 151.552 0 0 0 36.6592 153.8048v680.9088a151.552 151.552 0 0 0 151.5008 151.5008h680.9088a151.552 151.552 0 0 0 151.5008-151.5008V153.8048a152.3712 152.3712 0 0 0-152.064-151.5008z m43.9296 524.9024h-92.928a32.3072 32.3072 0 0 1-29.8496-20.2752l-28.16-72.0896-149.8112 379.5968a32.3072 32.3072 0 0 1-29.8496 20.2752c-1.1264 0-2.816 0-3.9424-0.5632a31.744 31.744 0 0 1-27.5968-28.16L484.4032 313.7536l-109.824 281.0368a33.792 33.792 0 0 1-21.4016 19.712 31.744 31.744 0 0 1-28.16-5.632l-107.008-85.6064H144.2304a32.5632 32.5632 0 0 1-32.1024-32.6656 32.256 32.256 0 0 1 32.1024-32.6656h84.48c7.3216 0 14.08 2.2528 19.712 6.7584l81.664 65.8944 139.1104-355.9424a33.024 33.024 0 0 1 33.792-20.2752 31.744 31.744 0 0 1 27.5968 28.16l66.4576 493.3632 134.6048-340.736a32.3072 32.3072 0 0 1 29.8496-20.2752c12.9536 0 24.7808 8.448 29.8496 20.8384l49.5616 126.72h70.9632c17.4592 0 32.1024 14.6432 32.1024 32.6656a31.5904 31.5904 0 0 1-31.5392 32.1024z" p-id="16178"></path></svg>