<svg t="1635834099926" class="icon" viewBox="0 0 1024 1024" version="1.1" xmlns="http://www.w3.org/2000/svg" p-id="5062" width="200" height="200"><path d="M959.184297 223.494167c0-79.677691-54.601572-144.253428-121.966842-144.253428H186.781522c-67.36527 0-121.966842 64.575738-121.966842 144.253428v577.011666c0 79.677691 54.601572 144.254451 121.966842 144.254452h650.435933c67.36527 0 121.966842-64.575738 121.966842-144.254452V632.191406H633.966331c-56.124252 0-101.654214-53.81158-101.654215-120.191406s45.529963-120.19243 101.654215-120.19243h325.217966v-168.313403z" p-id="5063"></path><path d="M613.624027 512.001023c0 39.83731 27.329439 72.125691 60.969607 72.125691 33.69645 0 60.997236-32.28838 60.997235-72.125691 0-39.839357-27.301809-72.126714-60.997235-72.126714-33.640168-0.001023-60.969607 32.287357-60.969607 72.126714" p-id="5064"></path></svg>