<svg t="1631091068297" class="icon" viewBox="0 0 1024 1024" version="1.1" xmlns="http://www.w3.org/2000/svg" p-id="28508" width="200" height="200"><path d="M565.248 85.290667a96 96 0 0 1 96 96V309.333333a96 96 0 0 1-96 96h-32v85.333334h138.794667a96 96 0 0 1 95.786666 89.429333l0.213334 6.570667v32h32.042666a96 96 0 0 1 96 96v128.042666a96 96 0 0 1-96 96h-128.042666a96 96 0 0 1-96-96V714.666667a96 96 0 0 1 96-96h32v-32a32 32 0 0 0-27.648-31.701334L672.042667 554.666667H330.581333a32 32 0 0 0-31.701333 27.648l-0.298667 4.352v32h32a96 96 0 0 1 96 96v128.042666a96 96 0 0 1-96 96h-128a96 96 0 0 1-96-96V714.666667a96 96 0 0 1 96-96h32v-32a96 96 0 0 1 89.429334-95.786667l6.570666-0.213333h138.666667v-85.333334h-32.042667a96 96 0 0 1-96-96V181.290667a96 96 0 0 1 96-96h128.042667z" p-id="28509"></path></svg>