<svg t="1632880222937" class="icon" viewBox="0 0 1024 1024" version="1.1" xmlns="http://www.w3.org/2000/svg" p-id="22317" width="200" height="200"><path d="M603.733333 554.666667c-21.333333-21.333333-53.333333-36.266667-87.466666-36.266667-34.133333 0-64 12.8-85.333334 36.266667-21.333333 21.333333-36.266667 53.333333-36.266666 87.466666 0 34.133333 12.8 64 36.266666 87.466667 21.333333 21.333333 53.333333 36.266667 87.466667 36.266667 34.133333 0 64-12.8 87.466667-36.266667 21.333333-21.333333 36.266667-53.333333 36.266666-87.466667-2.133333-34.133333-14.933333-64-38.4-87.466666z m-25.6 102.4h-59.733333c-8.533333 0-14.933333-6.4-14.933333-14.933334v-93.866666c0-8.533333 6.4-14.933333 14.933333-14.933334 8.533333 0 14.933333 6.4 14.933333 14.933334v78.933333h44.8c8.533333 0 14.933333 6.4 14.933334 14.933333 0 8.533333-6.4 14.933333-14.933334 14.933334z" p-id="22318"></path><path d="M716.8 473.6c-12.8-2.133333-21.333333-12.8-21.333333-23.466667 0-46.933333-19.2-89.6-49.066667-119.466666-29.866667-29.866667-72.533333-49.066667-119.466667-49.066667-34.133333 0-66.133333 10.666667-93.866666 27.733333-27.733333 17.066667-49.066667 44.8-61.866667 74.666667-4.266667 8.533333-12.8 14.933333-21.333333 14.933333-29.866667 2.133333-57.6 14.933333-76.8 36.266667-19.2 21.333333-32 49.066667-32 81.066667 0 64 51.2 117.333333 115.2 117.333333h8.533333c2.133333-36.266667 19.2-70.4 44.8-96 27.733333-27.733333 66.133333-44.8 106.666667-44.8 42.666667 0 81.066667 17.066667 108.8 44.8 23.466667 25.6 40.533333 57.6 42.666666 93.866667H704c42.666667 0 76.8-36.266667 76.8-78.933334 0-19.2-6.4-38.4-19.2-51.2-8.533333-14.933333-25.6-25.6-44.8-27.733333z" p-id="22319"></path><path d="M917.333333 0H106.666667C46.933333 0 0 46.933333 0 106.666667v810.666666c0 59.733333 46.933333 106.666667 106.666667 106.666667h810.666666c59.733333 0 106.666667-46.933333 106.666667-106.666667V106.666667c0-59.733333-46.933333-106.666667-106.666667-106.666667z m-211.2 678.4h-40.533333c-6.4 27.733333-21.333333 51.2-40.533333 70.4-27.733333 27.733333-66.133333 44.8-108.8 44.8-42.666667 0-81.066667-17.066667-106.666667-44.8-19.2-19.2-34.133333-44.8-40.533333-70.4h-12.8C266.666667 678.4 192 603.733333 192 512c0-44.8 17.066667-83.2 44.8-113.066667 25.6-25.6 57.6-44.8 96-49.066666 17.066667-34.133333 42.666667-61.866667 74.666667-83.2 34.133333-23.466667 76.8-36.266667 119.466666-36.266667 59.733333 0 115.2 25.6 153.6 64 36.266667 34.133333 59.733333 83.2 64 134.4 23.466667 8.533333 40.533333 21.333333 57.6 38.4 19.2 21.333333 29.866667 51.2 29.866667 83.2 0 70.4-55.466667 125.866667-125.866667 128z" p-id="22320"></path></svg>