<svg t="1631857493803" class="icon" viewBox="0 0 1024 1024" version="1.1" xmlns="http://www.w3.org/2000/svg" p-id="16609" width="200" height="200"><path d="M213.333333 341.333333a128 128 0 1 1 120.746667-170.666666H853.333333a85.333333 85.333333 0 0 1 85.333334 85.333333v215.338667a85.333333 85.333333 0 0 1-85.333334 85.333333l-682.026666-1.877333V768h518.656a128.042667 128.042667 0 1 1 0 85.333333H171.306667a85.333333 85.333333 0 0 1-85.333334-85.333333v-213.205333l0.256-6.613334a85.333333 85.333333 0 0 1 85.333334-78.72L853.333333 471.338667V256H334.037333A128.042667 128.042667 0 0 1 213.333333 341.333333z m597.333334 426.666667a42.666667 42.666667 0 1 0 0 85.333333 42.666667 42.666667 0 0 0 0-85.333333zM213.333333 170.666667a42.666667 42.666667 0 1 0 0 85.333333 42.666667 42.666667 0 0 0 0-85.333333z" p-id="16610"></path></svg>