<svg t="1632880469788" class="icon" viewBox="0 0 1024 1024" version="1.1" xmlns="http://www.w3.org/2000/svg" p-id="3902" width="200" height="200"><path d="M225.28 696.32l54.613333 95.573333c6.826667 13.653333 23.893333 17.066667 37.546667 13.653334l61.44-23.893334c10.24 6.826667 23.893333 13.653333 34.133333 20.48l10.24 64.853334c3.413333 13.653333 17.066667 23.893333 30.72 23.893333h112.64c13.653333 0 27.306667-10.24 30.72-27.306667l10.24-61.44c13.653333-6.826667 23.893333-13.653333 34.133334-20.48l61.44 23.893334c3.413333 0 6.826667 3.413333 10.24 3.413333 10.24 0 20.48-6.826667 27.306666-13.653333l54.613334-95.573334c6.826667-13.653333 3.413333-30.72-6.826667-40.96l-51.2-40.96v-20.48-20.48l51.2-40.96c10.24-10.24 13.653333-27.306667 6.826667-40.96l-54.613334-95.573333c-6.826667-13.653333-23.893333-17.066667-37.546666-13.653333l-61.44 23.893333c-10.24-6.826667-23.893333-13.653333-34.133334-20.48l-10.24-64.853333c0-6.826667-13.653333-17.066667-30.72-17.066667h-112.64c-13.653333 0-27.306667 10.24-30.72 27.306667l-10.24 61.44c-13.653333 6.826667-23.893333 13.653333-34.133333 20.48l-61.44-23.893334c-13.653333-3.413333-30.72 0-37.546667 13.653334l-54.613333 95.573333c-6.826667 13.653333-3.413333 30.72 6.826667 40.96l51.2 40.96v40.96l-51.2 40.96c-10.24 0-13.653333 17.066667-6.826667 30.72z m235.52-98.986667c0-27.306667 23.893333-51.2 51.2-51.2s51.2 23.893333 51.2 51.2S539.306667 648.533333 512 648.533333s-51.2-23.893333-51.2-51.2z" fill="" p-id="3903"></path><path d="M887.466667 0H136.533333C71.68 0 17.066667 54.613333 17.066667 119.466667v785.066666C17.066667 969.386667 71.68 1024 136.533333 1024h750.933334c64.853333 0 119.466667-54.613333 119.466666-119.466667v-785.066666C1006.933333 54.613333 952.32 0 887.466667 0zM273.066667 68.266667c10.24 0 17.066667 6.826667 17.066666 17.066666S283.306667 102.4 273.066667 102.4s-17.066667-6.826667-17.066667-17.066667 6.826667-17.066667 17.066667-17.066666zM204.8 68.266667c10.24 0 17.066667 6.826667 17.066667 17.066666S215.04 102.4 204.8 102.4s-17.066667-6.826667-17.066667-17.066667 6.826667-17.066667 17.066667-17.066666zM136.533333 68.266667c10.24 0 17.066667 6.826667 17.066667 17.066666S146.773333 102.4 136.533333 102.4s-17.066667-6.826667-17.066666-17.066667 6.826667-17.066667 17.066666-17.066666z m836.266667 836.266666c0 47.786667-37.546667 85.333333-85.333333 85.333334H136.533333c-47.786667 0-85.333333-37.546667-85.333333-85.333334V170.666667h921.6v733.866666z" p-id="3904"></path></svg>