<svg t="1631282593424" class="icon" viewBox="0 0 1026 1024" version="1.1" xmlns="http://www.w3.org/2000/svg" p-id="19772" width="200" height="200"><path d="M1022.721598 574.002497v-5.113608-1.278402c0-1.278402-1.278402-3.835206-2.556804-5.113608v-1.278402c-1.278402-1.278402-1.278402-2.556804-2.556804-3.835206l-1.278402-1.278402c-1.278402-1.278402-2.556804-2.556804-3.835206-2.556804l-1.278402-1.278402H1009.937578l-230.11236-120.169788V153.40824v-1.278402-5.113608-1.278402c0-1.278402-1.278402-3.835206-2.556804-5.113608v-1.278402c-1.278402-1.278402-1.278402-2.556804-2.556804-3.835206l-1.278402-1.278402c-1.278402-1.278402-2.556804-2.556804-3.835206-2.556804l-1.278402-1.278402H767.041199L524.144819 2.556804s-1.278402 0-1.278402-1.278402c-1.278402 0-1.278402-1.278402-2.556804-1.278402h-15.340824c-1.278402 0-2.556804 1.278402-2.556804 1.278402s-1.278402 0-1.278402 1.278402l-242.89638 127.8402h-1.278402l-1.278401 1.278402c-1.278402 1.278402-2.556804 1.278402-3.835206 2.556804l-1.278402 1.278402c-1.278402 1.278402-2.556804 2.556804-2.556804 3.835206v1.278402c-1.278402 1.278402-1.278402 3.835206-2.556804 5.113608V432.099875L14.062422 552.269663H12.78402l-1.278402 1.278402c-1.278402 1.278402-2.556804 1.278402-3.835206 2.556804l-1.278402 1.278402c-1.278402 1.278402-2.556804 2.556804-2.556804 3.835206v1.278402c-1.278402 1.278402-1.278402 3.835206-2.556804 5.113608V869.313358c0 8.948814 5.113608 17.897628 14.062422 23.011236l242.896379 127.8402c1.278402 0 2.556804 1.278402 3.835206 1.278402 1.278402 0 1.278402 0 2.556804 1.278402 2.556804 0 3.835206 1.278402 6.39201 1.278402s3.835206 0 6.39201-1.278402c1.278402 0 1.278402 0 2.556804-1.278402 1.278402 0 2.556804-1.278402 3.835206-1.278402L511.360799 898.716604l231.390762 121.44819c1.278402 0 2.556804 1.278402 3.835206 1.278402 1.278402 0 1.278402 0 2.556804 1.278402 2.556804 0 3.835206 1.278402 6.39201 1.278402s3.835206 0 6.39201-1.278402c1.278402 0 1.278402 0 2.556804-1.278402 1.278402 0 2.556804-1.278402 3.835205-1.278402l242.89638-127.8402c8.948814-3.835206 14.062422-12.78402 14.062422-23.011236L1022.721598 574.002497c0 1.278402 0 0 0 0z m-268.464419 99.715356L566.332085 575.280899 754.257179 476.843945 942.182272 575.280899 754.257179 673.717853z m-485.79276 0L80.539326 575.280899 268.464419 476.843945 456.389513 575.280899 268.464419 673.717853zM511.360799 54.971286L699.285893 153.40824 511.360799 251.845194 323.435705 153.40824 511.360799 54.971286z m-25.56804 478.122347l-191.7603-100.993758V195.595506l191.7603 100.993757v236.50437z m51.13608 0V296.589263l191.7603-100.993757v236.504369l-191.7603 100.993758zM51.13608 617.468165l191.7603 100.993758v236.504369L51.13608 853.972534V617.468165z m242.896379 100.993758l191.7603-100.993758v236.504369l-191.7603 100.993758V718.461923z m242.89638-100.993758l191.7603 100.993758v236.504369l-191.7603-100.993758V617.468165z m434.656679 236.504369l-191.7603 100.993758V718.461923l191.7603-100.993758v236.504369z" p-id="19773"></path></svg>