<svg t="1630476942123" class="icon" viewBox="0 0 1049 1024" version="1.1" xmlns="http://www.w3.org/2000/svg" p-id="1709" width="200" height="200"><path d="M1049.472256 41.984A42.112 42.112 0 0 0 1007.513856 0a40.96 40.96 0 0 0-21.0176 5.7856L48.205056 500.9152c-13.9008 7.3984-48.2816 21.9392-48.2048 37.7344s34.6368 30.1568 48.64 37.2224l243.5328 133.2736a51.456 51.456 0 0 0 18.8672 4.1728 42.24 42.24 0 0 0 37.8112-23.04 43.136 43.136 0 0 0-18.8672-56.6784L160.025856 537.6 841.190656 176.64 413.005056 697.0112a45.8752 45.8752 0 0 0-9.9584 27.2896V982.016a41.984 41.984 0 1 0 83.968 0v-241.792L943.078656 185.2672l-88.2176 706.048-256-122.2144a35.4048 35.4048 0 0 0-18.3552-4.1728 42.3424 42.3424 0 0 0-39.9104 55.6032 40.1664 40.1664 0 0 0 20.9664 24.1408l309.1456 145.92a35.0208 35.0208 0 0 0 18.3552 4.1728 43.648 43.648 0 0 0 19.456-4.7616 40.7808 40.7808 0 0 0 21.9392-30.9248L1049.625856 47.3088v-5.12z m0 0" p-id="1710"></path></svg>