<svg t="1618453238739" class="icon" viewBox="0 0 1024 1024" version="1.1" xmlns="http://www.w3.org/2000/svg" p-id="14673" width="200" height="200"><path d="M383.573333 106.666667c49.024 0 95.189333 19.925333 128.64 54.058666A180.096 180.096 0 0 1 640.853333 106.666667h159.36a32 32 0 0 1 32 32v32.170666h74.666667a32 32 0 0 1 31.701333 27.690667l0.298667 4.352V864a32 32 0 0 1-27.648 31.701333l-4.352 0.298667h-789.333333a32 32 0 0 1-31.701334-27.648l-0.298666-4.352V202.88a32 32 0 0 1 27.648-31.744l4.352-0.256 74.624-0.042667V138.666667a32 32 0 0 1 27.690666-31.701334l4.352-0.298666h159.317334zM192.128 234.837333h-42.666667V832h317.610667a122.282667 122.282667 0 0 0-84.48-42.368l-8.32-0.298667H224.213333a32 32 0 0 1-31.744-27.648l-0.256-4.352-0.042666-522.496zM832.213333 757.333333a32 32 0 0 1-32 32h-150.101333c-36.096 0-69.845333 15.872-92.8 42.666667h317.568V234.837333h-42.666667V757.333333zM768.256 170.624L640.853333 170.666667l-8.277333 0.298666c-35.712 2.56-68.266667 21.461333-88.32 51.413334v536.106666l0.938667-0.725333a185.6 185.6 0 0 1 104.874666-32.426667l118.186667-0.042666V204.714667l-0.085333-1.834667 0.085333-1.92v-30.336zM383.573333 170.666667l-127.36-0.042667 0.085334 32.256-0.085334 1.194667v521.216l118.186667 0.042666c34.218667 0 67.072 9.386667 95.530667 26.453334l10.24 6.656V222.336a116.309333 116.309333 0 0 0-80.128-50.517333l-8.149334-0.853334L383.530667 170.666667z" p-id="14674"></path></svg>