<svg t="1638344356293" class="icon" viewBox="0 0 1087 1024" version="1.1" xmlns="http://www.w3.org/2000/svg" p-id="1330" width="200" height="200"><path d="M899.645189 150.082731c-18.879941 16.447949-38.783879 34.239893-59.775814 53.375833a451.19859 451.19859 0 0 0-312.959022-124.67161C280.703123 78.722954 81.087747 272.642348 81.087747 512.0016c0 239.295252 199.615376 433.278646 445.822606 433.278646 246.27123 0 445.886607-193.983394 445.886607-433.278646l-0.064-8.447974h81.087747V512.0016c0 282.751116-235.903263 511.9984-526.910354 511.9984C235.903263 1024 0 794.752716 0 512.0016s235.903263-511.9984 526.910353-511.9984a533.118334 533.118334 0 0 1 372.734836 150.079531z m-478.078506 89.215721v87.807726c-58.367818 34.559892-97.279696 97.023697-97.279696 168.319474 0 108.67166 90.687717 196.863385 202.623366 196.863385 111.99965 0 202.687367-88.191724 202.687367-196.927385 0-74.495767-42.559867-139.327565-105.407671-172.79946V236.290462c108.79966 38.591879 186.495417 140.031562 186.495418 259.07119 0 152.319524-127.039603 275.711138-283.775114 275.711138-156.67151 0-283.711113-123.455614-283.711113-275.711138 0-116.095637 73.855769-215.359327 178.367443-255.9992z m73.34377-35.00789h63.9998v221.567307h-63.9998V204.290562z m556.92626 148.223536L851.19734 324.610186l171.967463-167.039478 28.67191 194.94339z" p-id="1331"></path></svg>
