<svg t="1631926644452" class="icon" viewBox="0 0 1024 1024" version="1.1" xmlns="http://www.w3.org/2000/svg" p-id="5820" width="200" height="200"><path d="M1024 776.128L512 1024l-512-248 2.176-138.24 56.128-27.392L0 582.208l2.176-138.176 57.6-28.16L0 387.008l2.176-138.112L512 0l512 247.808v139.2l-57.92 28.032 57.92 28.032v139.2l-56.448 27.328 56.448 27.264v139.2z m-80.64-478.016L512.256 89.344 81.92 299.264l-0.64 37.76L512 545.664l431.36-208.896v-38.592z m0 195.2l-69.44-33.6L512 634.944 151.808 460.48l-69.824 34.048-0.64 37.76L512 740.8l431.36-208.896v-38.592z m0 193.856l-68.032-32.96L512 830.208l-361.6-175.168-68.48 33.344-0.512 37.76L512 934.72l431.36-208.896v-38.656zM375.04 396.288l228.352-36.096-69.696 120L375.04 396.288z m370.56-148.544l134.528 54.848-135.296 54.912-14.72 5.888-134.4-54.848 149.888-60.8z m-199.68-8.576l-24.512 49.088-29.888-58.112-107.264-16 82.56-24.32-21.056-46.08 73.408 33.984 72.832-19.072-22.464 44.928 70.592 31.36-94.272 4.224zM435.968 309.696c-0.192 26.88-54.912 48.64-122.24 48.64-67.392 0-121.792-21.76-121.6-48.64 0.192-26.816 54.912-48.64 122.24-48.64 67.456 0.064 121.856 21.76 121.6 48.64z" p-id="5821"></path></svg>