<svg t="1631180343683" class="icon" viewBox="0 0 1024 1024" version="1.1" xmlns="http://www.w3.org/2000/svg" p-id="12496" width="200" height="200"><path d="M874.666667 85.333333h-128V42.666667c0-25.6-17.066667-42.666667-42.666667-42.666667s-42.666667 17.066667-42.666667 42.666667v42.666666h-298.666666V42.666667c0-25.6-17.066667-42.666667-42.666667-42.666667s-42.666667 17.066667-42.666667 42.666667v42.666666h-128C89.6 85.333333 42.666667 132.266667 42.666667 192v725.333333C42.666667 977.066667 89.6 1024 149.333333 1024h725.333334c59.733333 0 106.666667-46.933333 106.666666-106.666667v-725.333333C981.333333 132.266667 934.4 85.333333 874.666667 85.333333z m-226.133334 750.933334c-8.533333 8.533333-17.066667 12.8-29.866666 12.8-12.8 0-21.333333-4.266667-29.866667-12.8L482.133333 725.333333c-8.533333-8.533333-12.8-17.066667-12.8-29.866666v-149.333334c0-25.6 17.066667-42.666667 42.666667-42.666666s42.666667 17.066667 42.666667 42.666666v128l93.866666 93.866667c17.066667 21.333333 17.066667 51.2 0 68.266667zM896 341.333333H128V192c0-12.8 8.533333-21.333333 21.333333-21.333333h128v42.666666c0 25.6 17.066667 42.666667 42.666667 42.666667s42.666667-17.066667 42.666667-42.666667V170.666667h298.666666v42.666666c0 25.6 17.066667 42.666667 42.666667 42.666667s42.666667-17.066667 42.666667-42.666667V170.666667h128c12.8 0 21.333333 8.533333 21.333333 21.333333V341.333333z" p-id="12497"></path></svg>