<svg t="1631170748436" class="icon" viewBox="0 0 1024 1024" version="1.1" xmlns="http://www.w3.org/2000/svg" p-id="4575" width="200" height="200"><path d="M648.52992 631.47008m-34.12992 0a34.12992 34.12992 0 1 0 68.25984 0 34.12992 34.12992 0 1 0-68.25984 0Z" p-id="4576"></path><path d="M409.6 392.52992m-34.12992 0a34.12992 34.12992 0 1 0 68.25984 0 34.12992 34.12992 0 1 0-68.25984 0Z" p-id="4577"></path><path d="M853.32992 102.4H170.67008C133.13024 102.4 102.4 133.13024 102.4 170.67008v682.65984C102.4 890.86976 133.13024 921.6 170.67008 921.6h682.65984C890.86976 921.6 921.6 890.86976 921.6 853.32992V170.67008C921.6 133.13024 890.86976 102.4 853.32992 102.4zM819.2 665.6h-74.52672c-14.10048 39.66976-51.59936 68.27008-96.14336 68.27008-44.53376 0-82.03264-28.60032-96.13312-68.27008H204.8v-68.27008h347.5968c14.10048-39.7312 51.59936-68.25984 96.13312-68.25984 44.544 0 82.04288 28.52864 96.14336 68.25984H819.2V665.6z m0-238.92992H505.73312c-14.10048 39.65952-51.59936 68.25984-96.13312 68.25984s-82.03264-28.60032-96.13312-68.25984H204.8V358.4h108.66688c14.10048-39.66976 51.59936-68.27008 96.13312-68.27008s82.03264 28.60032 96.13312 68.27008H819.2v68.27008z" p-id="4578"></path></svg>