<svg t="1619681460967" class="icon" viewBox="0 0 1024 1024" version="1.1" xmlns="http://www.w3.org/2000/svg" p-id="1972" width="200" height="200"><path d="M381.17 13.21A27.74 27.74 0 0 0 350 24.39L127.78 357.71A27.78 27.78 0 1 0 174 388.53l171.33-257v852.69a27.78 27.78 0 1 0 55.55 0V39.79a27.78 27.78 0 0 0-19.71-26.58zM888.51 627.78a27.77 27.77 0 0 0-38.52 7.7l-171.33 257V39.79a27.78 27.78 0 0 0-55.55 0v944.43a27.78 27.78 0 0 0 19.72 26.58 27.48 27.48 0 0 0 8.06 1.19A27.77 27.77 0 0 0 674 999.63L896.22 666.3a27.76 27.76 0 0 0-7.71-38.52z" p-id="1973"></path></svg>
