<svg t="1631797932349" class="icon" viewBox="0 0 1024 1024" version="1.1" xmlns="http://www.w3.org/2000/svg" p-id="16131" width="200" height="200"><path d="M298.1 432.9c-41.7 0-59.8 31.7-59.8 78s19.6 80.2 60.8 80.2c44.7 0 60.1-37.6 60.1-79.1 0-44.6-17.5-79.1-61.1-79.1zM920 256H104a40 40 0 0 0-40 40v432a40 40 0 0 0 40 40h816a40 40 0 0 0 40-40V296a40 40 0 0 0-40-40zM297 636.7c-76.9 0-116.7-55.3-116.7-124.7s44.6-124.7 120.2-124.7c71.4 0 116.7 49.4 116.7 124 0 67.6-41.1 125.4-120.2 125.4z m336.6-203.9a4 4 0 0 1-4 4H516.8v55.6h105.4a4 4 0 0 1 4 4v37.9a4 4 0 0 1-4 4H516.8v90.8a4 4 0 0 1-4 4h-46.9a4 4 0 0 1-4-4V394.9a4 4 0 0 1 4-4h163.7a4 4 0 0 1 4 4z m210.1 0a4 4 0 0 1-4 4H726.9v55.6h105.4a4 4 0 0 1 4 4v37.9a4 4 0 0 1-4 4H726.9v90.8a3.9 3.9 0 0 1-4 4h-46.8a4 4 0 0 1-4-4V394.9a4 4 0 0 1 4-4h163.6a4 4 0 0 1 4 4z" p-id="16132"></path></svg>