<svg t="1631797886427" class="icon" viewBox="0 0 1024 1024" version="1.1" xmlns="http://www.w3.org/2000/svg" p-id="15993" width="200" height="200"><path d="M383.9 432.9c-41.6 0-59.8 31.7-59.8 78s19.6 80.2 60.8 80.2c44.8 0 60.2-37.6 60.2-79.1 0-44.6-17.6-79.1-61.2-79.1zM920 256H104a40 40 0 0 0-40 40v432a40 40 0 0 0 40 40h816a40 40 0 0 0 40-40V296a40 40 0 0 0-40-40zM382.8 636.7c-76.9 0-116.7-55.3-116.7-124.7s44.6-124.7 120.2-124.7c71.4 0 116.8 49.4 116.8 124 0 67.6-41.1 125.4-120.3 125.4z m375.1-7.6a4 4 0 0 1-4 4h-59.3a4.1 4.1 0 0 1-3.6-2.1c-25.5-47.4-82.6-154.1-93.9-181.8h-0.7c1.8 20 2.5 71.4 2.5 114.7v65.2a4 4 0 0 1-4 4h-43.1a4 4 0 0 1-4-4V394.9a4 4 0 0 1 4-4h62.8a4 4 0 0 1 3.5 2c29.6 54.3 80.6 146.1 91.1 172.2h0.7c-2.8-24.2-2.8-67-2.8-106.8v-63.4a4 4 0 0 1 4-4h42.8a4 4 0 0 1 4 4z" p-id="15994"></path></svg>