<svg t="1618825524212" class="icon" viewBox="0 0 1024 1024" version="1.1" xmlns="http://www.w3.org/2000/svg" p-id="15336" width="200" height="200"><path d="M128 266.666667A138.666667 138.666667 0 0 1 266.666667 128h490.666666A138.666667 138.666667 0 0 1 896 266.666667v246.272a276.096 276.096 0 0 0-64-30.250667V426.666667h-170.666667v56.021333a276.096 276.096 0 0 0-64 30.250667V426.666667h-170.666666v170.666666h86.272a276.096 276.096 0 0 0-30.250667 64H426.666667v170.666667h56.021333c7.381333 22.784 17.578667 44.245333 30.250667 64H266.666667A138.666667 138.666667 0 0 1 128 757.333333V266.666667zM266.666667 192A74.666667 74.666667 0 0 0 192 266.666667V362.666667h170.666667v-170.666667H266.666667zM192 426.666667h170.666667v170.666666h-170.666667v-170.666666z m469.333333-64v-170.666667h96c41.216 0 74.666667 33.450667 74.666667 74.666667V362.666667h-170.666667z m-64-170.666667v170.666667h-170.666666v-170.666667h170.666666z m-405.333333 469.333333h170.666667v170.666667H266.666667a74.666667 74.666667 0 0 1-74.666667-74.666667V661.333333z" p-id="15337"></path><path d="M981.333333 746.666667a234.666667 234.666667 0 1 0-469.333333 0 234.666667 234.666667 0 0 0 469.333333 0z m-213.333333 21.333333l0.042667 106.794667a21.333333 21.333333 0 1 1-42.666667 0V768h-106.88a21.333333 21.333333 0 1 1 0-42.666667H725.333333v-106.666666a21.333333 21.333333 0 0 1 42.666667 0V725.333333h106.794667a21.333333 21.333333 0 1 1 0 42.666667h-106.752z" p-id="15338"></path></svg>
