<svg t="1618825432380" class="icon" viewBox="0 0 1024 1024" version="1.1" xmlns="http://www.w3.org/2000/svg" p-id="14943" width="200" height="200"><path d="M128 266.666667A138.666667 138.666667 0 0 1 266.666667 128h490.666666A138.666667 138.666667 0 0 1 896 266.666667v246.272a276.096 276.096 0 0 0-64-30.250667V426.666667h-170.666667v56.021333a276.096 276.096 0 0 0-64 30.250667V426.666667h-170.666666v170.666666h86.272a276.096 276.096 0 0 0-30.250667 64H426.666667v170.666667h56.021333c7.381333 22.784 17.578667 44.245333 30.250667 64H266.666667A138.666667 138.666667 0 0 1 128 757.333333V266.666667zM266.666667 192A74.666667 74.666667 0 0 0 192 266.666667V362.666667h170.666667v-170.666667H266.666667zM192 426.666667h170.666667v170.666666h-170.666667v-170.666666z m469.333333-64v-170.666667h96c41.216 0 74.666667 33.450667 74.666667 74.666667V362.666667h-170.666667z m-64-170.666667v170.666667h-170.666666v-170.666667h170.666666z m-405.333333 469.333333h170.666667v170.666667H266.666667a74.666667 74.666667 0 0 1-74.666667-74.666667V661.333333z" p-id="14944"></path><path d="M533.333333 666.837333l19.072 18.346667a85.333333 85.333333 0 0 1 0 122.965333l-19.072 18.346667c8.533333 24.490667 20.906667 47.061333 36.394667 66.986667l25.685333-7.594667a85.333333 85.333333 0 0 1 107.093334 61.866667l7.424 30.506666a220.842667 220.842667 0 0 0 73.514666 0l7.338667-30.549333a85.333333 85.333333 0 0 1 107.136-61.824l25.685333 7.594667c15.445333-19.925333 27.818667-42.496 36.394667-66.986667l-19.072-18.346667a85.333333 85.333333 0 0 1 0-122.965333l19.072-18.346667a236.672 236.672 0 0 0-36.394667-66.986666l-25.685333 7.594666a85.333333 85.333333 0 0 1-107.093333-61.866666l-7.424-30.506667a220.8 220.8 0 0 0-73.472 0l-7.381334 30.549333a85.333333 85.333333 0 0 1-107.136 61.824l-25.685333-7.594666a236.672 236.672 0 0 0-36.394667 66.986666z m213.333334 143.829334c34.133333 0 61.866667-28.672 61.866666-64S780.8 682.666667 746.666667 682.666667c-34.133333 0-61.866667 28.672-61.866667 64S712.533333 810.666667 746.666667 810.666667z" p-id="14945"></path></svg>
