<svg t="1618825472681" class="icon" viewBox="0 0 1024 1024" version="1.1" xmlns="http://www.w3.org/2000/svg" p-id="15205" width="200" height="200"><path d="M128 266.666667A138.666667 138.666667 0 0 1 266.666667 128h490.666666A138.666667 138.666667 0 0 1 896 266.666667v246.272a276.096 276.096 0 0 0-64-30.250667V426.666667h-170.666667v56.021333a276.096 276.096 0 0 0-64 30.250667V426.666667h-170.666666v170.666666h86.272a276.096 276.096 0 0 0-30.250667 64H426.666667v170.666667h56.021333c7.381333 22.784 17.578667 44.245333 30.250667 64H266.666667A138.666667 138.666667 0 0 1 128 757.333333V266.666667zM266.666667 192A74.666667 74.666667 0 0 0 192 266.666667V362.666667h170.666667v-170.666667H266.666667zM192 426.666667h170.666667v170.666666h-170.666667v-170.666666z m469.333333-64v-170.666667h96c41.216 0 74.666667 33.450667 74.666667 74.666667V362.666667h-170.666667z m-64-170.666667v170.666667h-170.666666v-170.666667h170.666666z m-405.333333 469.333333h170.666667v170.666667H266.666667a74.666667 74.666667 0 0 1-74.666667-74.666667V661.333333z" p-id="15206"></path><path d="M981.333333 746.666667a234.666667 234.666667 0 1 1-469.333333 0 234.666667 234.666667 0 0 1 469.333333 0z m-234.666666-30.165334l-70.229334-70.272a21.333333 21.333333 0 0 0-30.208 30.208l70.272 70.229334-70.272 70.229333a21.333333 21.333333 0 0 0 30.208 30.208l70.229334-70.272 70.229333 70.272a21.333333 21.333333 0 0 0 30.208-30.208L776.832 746.666667l70.272-70.229334a21.333333 21.333333 0 0 0-30.208-30.208L746.666667 716.501333z" p-id="15207"></path></svg>
