<svg t="1618825362499" class="icon" viewBox="0 0 1024 1024" version="1.1" xmlns="http://www.w3.org/2000/svg" p-id="14673" width="200" height="200"><path d="M128 266.666667A138.666667 138.666667 0 0 1 266.666667 128h490.666666A138.666667 138.666667 0 0 1 896 266.666667v228.778666a154.026667 154.026667 0 0 0-64-19.328V426.666667h-170.666667v144.170666L570.837333 661.333333H426.666667v170.666667h33.450666l-24.576 61.525333-0.981333 2.474667H266.666667A138.666667 138.666667 0 0 1 128 757.333333V266.666667zM266.666667 192A74.666667 74.666667 0 0 0 192 266.666667V362.666667h170.666667v-170.666667H266.666667zM192 426.666667h170.666667v170.666666h-170.666667v-170.666666z m234.666667 0v170.666666h170.666666v-170.666666h-170.666666z m234.666666-64v-170.666667h96c41.216 0 74.666667 33.450667 74.666667 74.666667V362.666667h-170.666667z m-64-170.666667v170.666667h-170.666666v-170.666667h170.666666z m-405.333333 469.333333h170.666667v170.666667H266.666667a74.666667 74.666667 0 0 1-74.666667-74.666667V661.333333z" p-id="14674"></path><path d="M741.376 551.125333a111.829333 111.829333 0 0 1 158.165333 158.165334l-210.602666 210.602666c-10.581333 10.581333-23.466667 18.56-37.632 23.296l-109.781334 36.565334c-43.093333 14.336-83.2-28.245333-66.389333-70.4l52.949333-132.352c5.546667-13.866667 13.824-26.453333 24.362667-36.992l188.928-188.885334z" p-id="14675"></path></svg>
