<svg t="1618538798798" class="icon" viewBox="0 0 1024 1024" version="1.1" xmlns="http://www.w3.org/2000/svg" p-id="14933" width="200" height="200"><path d="M449.792 367.274667l46.933333-95.146667a28.928 28.928 0 0 1 51.882667 0l46.933333 95.146667 105.002667 15.232c23.722667 3.413333 33.194667 32.597333 16.042667 49.365333l-75.946667 74.026667 17.92 104.533333a28.928 28.928 0 0 1-41.984 30.549333l-93.909333-49.365333-93.866667 49.365333a28.928 28.928 0 0 1-42.026667-30.506666l17.92-104.533334-75.946666-74.069333a28.928 28.928 0 0 1 16.042666-49.365333l104.96-15.232z m45.141333 39.253333a28.928 28.928 0 0 1-21.76 15.786667l-62.037333 9.045333 44.885333 43.733333c6.826667 6.656 9.898667 16.213333 8.32 25.6l-10.624 61.781334 55.466667-29.184a28.928 28.928 0 0 1 26.965333 0l55.466667 29.184-10.624-61.781334a28.928 28.928 0 0 1 8.32-25.6l44.885333-43.733333-61.994666-9.045333a28.928 28.928 0 0 1-21.76-15.786667L522.666667 350.293333l-27.733334 56.192z" p-id="14934"></path><path d="M277.333333 85.333333A106.666667 106.666667 0 0 0 170.666667 192v640A106.666667 106.666667 0 0 0 277.333333 938.666667h565.333334a32 32 0 0 0 0-64H277.333333a42.666667 42.666667 0 0 1-42.666666-42.666667h608a32 32 0 0 0 32-32V192A106.666667 106.666667 0 0 0 768 85.333333H277.333333zM810.666667 768H234.666667V192a42.666667 42.666667 0 0 1 42.666666-42.666667H768a42.666667 42.666667 0 0 1 42.666667 42.666667V768z" p-id="14935"></path></svg>
