<svg t="1638945585847" class="icon" viewBox="0 0 1024 1024" version="1.1" xmlns="http://www.w3.org/2000/svg" p-id="4899" width="200" height="200"><path d="M675.413333 702.72a35.84 35.84 0 1 0 49.92 51.2L841.386667 640a13.226667 13.226667 0 0 1 18.773333 18.773333L619.52 896a42.666667 42.666667 0 0 1-30.293333 12.373333H349.44a35.84 35.84 0 1 0 0 71.68h256a85.333333 85.333333 0 0 0 60.16-25.173333l250.026667-250.026667a85.333333 85.333333 0 0 0 0-121.173333 85.333333 85.333333 0 0 0-121.173334 0z" p-id="4900"></path><path d="M445.866667 878.933333a35.84 35.84 0 1 1 0-71.68h121.173333a13.226667 13.226667 0 0 0 0-26.453333H346.453333a42.666667 42.666667 0 0 0-30.293333 12.373333l-170.666667 170.666667a35.84 35.84 0 0 1-50.773333-50.773333l179.626667-179.626667a85.333333 85.333333 0 0 1 60.16-25.173333h233.386666a85.333333 85.333333 0 0 1 85.333334 85.333333 85.333333 85.333333 0 0 1-85.333334 85.333333z" p-id="4901"></path><path d="M344.746667 488.533333a206.506667 206.506667 0 0 1 184.32-98.56 200.533333 200.533333 0 0 1 175.36 145.92 36.266667 36.266667 0 0 0 42.666666 26.026667 36.693333 36.693333 0 0 0 27.306667-45.653333 273.066667 273.066667 0 0 0-145.92-170.666667 173.226667 173.226667 0 1 0-232.106667 0 272.64 272.64 0 0 0-156.586666 246.613333 268.373333 268.373333 0 0 0 2.986666 40.533334 35.413333 35.413333 0 0 0 42.666667 29.013333 35.84 35.84 0 0 0 27.306667-42.666667 170.666667 170.666667 0 0 1 32-130.56zM512 114.346667a101.546667 101.546667 0 1 1-101.546667 101.546666A101.973333 101.973333 0 0 1 512 114.346667z" p-id="4902"></path></svg>